
<svg width="80" height="64" viewBox="0 0 80 64" fill="none" xmlns="http://www.w3.org/2000/svg">
<path d="M50.4133 27.503C50.9395 26.3644 52.223 22.8239 53.9329 22.6582C55.6427 22.4924 58.0865 24.2764 58.3316 26.3625C58.4768 27.6064 57.2511 30.679 55.5412 30.2013C53.8314 29.7237 54.0484 27.6434 54.9806 25.5397C56.1315 22.9467 59.3638 20.1314 61.2048 19.1781C63.0458 18.2247 66.7184 20.034 67.3758 24.6371C68.0332 29.2402 62.9771 36.6059 60.6614 35.75C59.7385 35.4108 58.5502 34.6251 59.7416 30.9851C61.2579 26.3508 70.3911 19.3867 72.7583 18.909C75.1255 18.4313 76.4825 19.5641 77.4912 21.6112C78.6186 23.8942 77.7363 26.4502 76.1764 30.5074C74.4588 34.974 60.6614 50.6862 56.717 53.5463C52.7727 56.4064 50.1431 56.1588 50.1431 56.1588C50.1431 56.1588 21.8707 56.0321 20.5574 56.1588C19.06 56.307 18.6415 56.7301 17.8592 57.3676C17.4157 57.7263 17.105 58.0188 16.5647 58.4126C15.4873 59.1925 14.4379 60.0952 12.5376 61.4891C9.0898 64.0237 6.35718 60.0601 6.35718 60.0601C6.35718 60.0601 2.41284 51.6396 2.15051 50.3684C2.15051 50.3684 1.49156 45.4417 2.93126 42.4236C4.37096 39.4056 10.6279 35.1222 10.6279 35.1222C10.6279 35.1222 12.6578 33.6853 13.5807 32.2562C14.5035 30.8272 16.2227 27.1423 21.4709 26.3508C23.8132 25.9979 27.5186 26.265 32.9104 29.2596C38.3023 32.2543 44.0861 23.9956 44.0861 23.9956C44.0861 23.9956 55.421 7.39443 45.1385 2.38776C41.5268 0.633081 40.1417 5.24788 37.6433 7.94813C37.6433 7.94813 29.408 -3.41827 26.4677 9.70281C24.2394 19.646 34.8732 26.9688 36.2505 27.9436C37.0656 28.5285 38.2601 28.8834 38.3819 28.9185L46.5845 30.8467C46.5845 30.8467 53.4223 31.6265 53.6846 35.7597C53.9469 39.893 48.2943 41.9577 48.2943 41.9577C48.2943 41.9577 35.54 43.0689 29.2284 39.4231" stroke="#221F93" stroke-width="3" stroke-miterlimit="10"/>
</svg>
