<svg width="125" height="29" viewBox="0 0 125 29" fill="none" xmlns="http://www.w3.org/2000/svg">
<path d="M26.4807 12.4125C26.7576 11.903 27.4332 10.3186 28.3331 10.2444C29.233 10.1703 30.5192 10.9686 30.6482 11.9021C30.7246 12.4587 30.0795 13.8337 29.1796 13.62C28.2797 13.4062 28.3939 12.4753 28.8845 11.5339C29.4902 10.3736 31.1915 9.11373 32.1604 8.6871C33.1294 8.26047 35.0623 9.07011 35.4083 11.13C35.7543 13.1898 33.0932 16.486 31.8744 16.103C31.3887 15.9512 30.7633 15.5996 31.3903 13.9707C32.1883 11.8969 36.9953 8.78045 38.2412 8.5667C39.4871 8.35295 40.2013 8.85985 40.7322 9.77593C41.3256 10.7976 40.8612 11.9414 40.0402 13.7569C39.1362 15.7557 31.8744 22.7868 29.7984 24.0667C27.7225 25.3466 26.3385 25.2358 26.3385 25.2358C26.3385 25.2358 11.4582 25.1791 10.7671 25.2358C9.97892 25.3021 9.75867 25.4915 9.34693 25.7768C9.11353 25.9373 8.94998 26.0682 8.66562 26.2444C8.09855 26.5934 7.54628 26.9973 6.5461 27.6211C4.73147 28.7553 3.29325 26.9816 3.29325 26.9816C3.29325 26.9816 1.21728 23.2135 1.07921 22.6446C1.07921 22.6446 0.732398 20.4399 1.49013 19.0894C2.24787 17.7388 5.54099 15.822 5.54099 15.822C5.54099 15.822 6.60938 15.179 7.09509 14.5395C7.58079 13.9 8.48564 12.2511 11.2478 11.8969C12.4806 11.739 14.4308 11.8585 17.2687 13.1986C20.1065 14.5387 23.1506 10.8429 23.1506 10.8429C23.1506 10.8429 29.1163 3.41398 23.7045 1.17352C21.8036 0.38831 21.0746 2.45341 19.7597 3.66176C19.7597 3.66176 15.4253 -1.42465 13.8777 4.44697C12.705 8.89649 18.3017 12.1734 19.0266 12.6097C19.4556 12.8714 20.0843 13.0302 20.1484 13.0459L24.4655 13.9087C24.4655 13.9087 28.0643 14.2577 28.2024 16.1073C28.3405 17.9569 25.3654 18.8809 25.3654 18.8809C25.3654 18.8809 18.6526 19.3782 15.3308 17.7467" stroke="#221F93" stroke-width="1.5" stroke-miterlimit="10"/>
<path d="M48.44 15.096C48.312 14.8613 48.136 14.6827 47.912 14.56C47.688 14.4373 47.4267 14.376 47.128 14.376C46.7973 14.376 46.504 14.4507 46.248 14.6C45.992 14.7493 45.792 14.9627 45.648 15.24C45.504 15.5173 45.432 15.8373 45.432 16.2C45.432 16.5733 45.504 16.8987 45.648 17.176C45.7973 17.4533 46.0027 17.6667 46.264 17.816C46.5253 17.9653 46.8293 18.04 47.176 18.04C47.6027 18.04 47.952 17.928 48.224 17.704C48.496 17.4747 48.6747 17.1573 48.76 16.752H46.84V15.896H49.864V16.872C49.7893 17.2613 49.6293 17.6213 49.384 17.952C49.1387 18.2827 48.8213 18.5493 48.432 18.752C48.048 18.9493 47.616 19.048 47.136 19.048C46.5973 19.048 46.1093 18.928 45.672 18.688C45.24 18.4427 44.8987 18.104 44.648 17.672C44.4027 17.24 44.28 16.7493 44.28 16.2C44.28 15.6507 44.4027 15.16 44.648 14.728C44.8987 14.2907 45.24 13.952 45.672 13.712C46.1093 13.4667 46.5947 13.344 47.128 13.344C47.7573 13.344 48.304 13.4987 48.768 13.808C49.232 14.112 49.552 14.5413 49.728 15.096H48.44ZM54.8126 16.688C54.8126 16.848 54.802 16.992 54.7806 17.12H51.5406C51.5673 17.44 51.6793 17.6907 51.8766 17.872C52.074 18.0533 52.3166 18.144 52.6046 18.144C53.0206 18.144 53.3166 17.9653 53.4926 17.608H54.7006C54.5726 18.0347 54.3273 18.3867 53.9646 18.664C53.602 18.936 53.1566 19.072 52.6286 19.072C52.202 19.072 51.818 18.9787 51.4766 18.792C51.1406 18.6 50.8766 18.3307 50.6846 17.984C50.498 17.6373 50.4046 17.2373 50.4046 16.784C50.4046 16.3253 50.498 15.9227 50.6846 15.576C50.8713 15.2293 51.1326 14.9627 51.4686 14.776C51.8046 14.5893 52.1913 14.496 52.6286 14.496C53.05 14.496 53.426 14.5867 53.7566 14.768C54.0926 14.9493 54.3513 15.208 54.5326 15.544C54.7193 15.8747 54.8126 16.256 54.8126 16.688ZM53.6526 16.368C53.6473 16.08 53.5433 15.8507 53.3406 15.68C53.138 15.504 52.89 15.416 52.5966 15.416C52.3193 15.416 52.0846 15.5013 51.8926 15.672C51.706 15.8373 51.5913 16.0693 51.5486 16.368H53.6526ZM58.0861 14.504C58.6141 14.504 59.0408 14.672 59.3661 15.008C59.6915 15.3387 59.8541 15.8027 59.8541 16.4V19H58.7341V16.552C58.7341 16.2 58.6461 15.9307 58.4701 15.744C58.2941 15.552 58.0541 15.456 57.7501 15.456C57.4408 15.456 57.1955 15.552 57.0141 15.744C56.8381 15.9307 56.7501 16.2 56.7501 16.552V19H55.6301V14.568H56.7501V15.12C56.8995 14.928 57.0888 14.7787 57.3181 14.672C57.5528 14.56 57.8088 14.504 58.0861 14.504ZM65.0392 16.688C65.0392 16.848 65.0285 16.992 65.0072 17.12H61.7672C61.7939 17.44 61.9059 17.6907 62.1032 17.872C62.3005 18.0533 62.5432 18.144 62.8312 18.144C63.2472 18.144 63.5432 17.9653 63.7192 17.608H64.9272C64.7992 18.0347 64.5539 18.3867 64.1912 18.664C63.8285 18.936 63.3832 19.072 62.8552 19.072C62.4285 19.072 62.0445 18.9787 61.7032 18.792C61.3672 18.6 61.1032 18.3307 60.9112 17.984C60.7245 17.6373 60.6312 17.2373 60.6312 16.784C60.6312 16.3253 60.7245 15.9227 60.9112 15.576C61.0979 15.2293 61.3592 14.9627 61.6952 14.776C62.0312 14.5893 62.4179 14.496 62.8552 14.496C63.2765 14.496 63.6525 14.5867 63.9832 14.768C64.3192 14.9493 64.5779 15.208 64.7592 15.544C64.9459 15.8747 65.0392 16.256 65.0392 16.688ZM63.8792 16.368C63.8739 16.08 63.7699 15.8507 63.5672 15.68C63.3645 15.504 63.1165 15.416 62.8232 15.416C62.5459 15.416 62.3112 15.5013 62.1192 15.672C61.9325 15.8373 61.8179 16.0693 61.7752 16.368H63.8792ZM66.9767 15.256C67.1207 15.0213 67.3074 14.8373 67.5367 14.704C67.7714 14.5707 68.038 14.504 68.3367 14.504V15.68H68.0407C67.6887 15.68 67.422 15.7627 67.2407 15.928C67.0647 16.0933 66.9767 16.3813 66.9767 16.792V19H65.8567V14.568H66.9767V15.256ZM71.0591 19.072C70.6324 19.072 70.2484 18.9787 69.9071 18.792C69.5657 18.6 69.2964 18.3307 69.0991 17.984C68.9071 17.6373 68.8111 17.2373 68.8111 16.784C68.8111 16.3307 68.9097 15.9307 69.1071 15.584C69.3097 15.2373 69.5844 14.9707 69.9311 14.784C70.2777 14.592 70.6644 14.496 71.0911 14.496C71.5177 14.496 71.9044 14.592 72.2511 14.784C72.5977 14.9707 72.8697 15.2373 73.0671 15.584C73.2697 15.9307 73.3711 16.3307 73.3711 16.784C73.3711 17.2373 73.2671 17.6373 73.0591 17.984C72.8564 18.3307 72.5791 18.6 72.2271 18.792C71.8804 18.9787 71.4911 19.072 71.0591 19.072ZM71.0591 18.096C71.2617 18.096 71.4511 18.048 71.6271 17.952C71.8084 17.8507 71.9524 17.7013 72.0591 17.504C72.1657 17.3067 72.2191 17.0667 72.2191 16.784C72.2191 16.3627 72.1071 16.04 71.8831 15.816C71.6644 15.5867 71.3951 15.472 71.0751 15.472C70.7551 15.472 70.4857 15.5867 70.2671 15.816C70.0537 16.04 69.9471 16.3627 69.9471 16.784C69.9471 17.2053 70.0511 17.5307 70.2591 17.76C70.4724 17.984 70.7391 18.096 71.0591 18.096ZM75.8886 19.072C75.526 19.072 75.2006 19.008 74.9126 18.88C74.6246 18.7467 74.3953 18.568 74.2246 18.344C74.0593 18.12 73.9686 17.872 73.9526 17.6H75.0806C75.102 17.7707 75.1846 17.912 75.3286 18.024C75.478 18.136 75.662 18.192 75.8806 18.192C76.094 18.192 76.2593 18.1493 76.3766 18.064C76.4993 17.9787 76.5606 17.8693 76.5606 17.736C76.5606 17.592 76.486 17.4853 76.3366 17.416C76.1926 17.3413 75.9606 17.2613 75.6406 17.176C75.31 17.096 75.038 17.0133 74.8246 16.928C74.6166 16.8427 74.4353 16.712 74.2806 16.536C74.1313 16.36 74.0566 16.1227 74.0566 15.824C74.0566 15.5787 74.126 15.3547 74.2646 15.152C74.4086 14.9493 74.6113 14.7893 74.8726 14.672C75.1393 14.5547 75.4513 14.496 75.8086 14.496C76.3366 14.496 76.758 14.6293 77.0726 14.896C77.3873 15.1573 77.5606 15.512 77.5926 15.96H76.5206C76.5046 15.784 76.43 15.6453 76.2966 15.544C76.1686 15.4373 75.9953 15.384 75.7766 15.384C75.574 15.384 75.4166 15.4213 75.3046 15.496C75.198 15.5707 75.1446 15.6747 75.1446 15.808C75.1446 15.9573 75.2193 16.072 75.3686 16.152C75.518 16.2267 75.75 16.304 76.0646 16.384C76.3846 16.464 76.6486 16.5467 76.8566 16.632C77.0646 16.7173 77.2433 16.8507 77.3926 17.032C77.5473 17.208 77.6273 17.4427 77.6326 17.736C77.6326 17.992 77.5606 18.2213 77.4166 18.424C77.278 18.6267 77.0753 18.7867 76.8086 18.904C76.5473 19.016 76.2406 19.072 75.8886 19.072ZM79.12 14.04C78.9227 14.04 78.7573 13.9787 78.624 13.856C78.496 13.728 78.432 13.5707 78.432 13.384C78.432 13.1973 78.496 13.0427 78.624 12.92C78.7573 12.792 78.9227 12.728 79.12 12.728C79.3173 12.728 79.48 12.792 79.608 12.92C79.7413 13.0427 79.808 13.1973 79.808 13.384C79.808 13.5707 79.7413 13.728 79.608 13.856C79.48 13.9787 79.3173 14.04 79.12 14.04ZM79.672 14.568V19H78.552V14.568H79.672ZM82.0826 15.488V17.632C82.0826 17.7813 82.1172 17.8907 82.1866 17.96C82.2612 18.024 82.3839 18.056 82.5546 18.056H83.0746V19H82.3706C81.4266 19 80.9546 18.5413 80.9546 17.624V15.488H80.4266V14.568H80.9546V13.472H82.0826V14.568H83.0746V15.488H82.0826ZM88.1201 14.568L85.3761 21.096H84.1841L85.1441 18.888L83.3681 14.568H84.6241L85.7681 17.664L86.9281 14.568H88.1201ZM96.7181 13.416V19H95.5981V15.368L94.1021 19H93.2541L91.7501 15.368V19H90.6301V13.416H91.9021L93.6781 17.568L95.4541 13.416H96.7181ZM97.5374 16.768C97.5374 16.32 97.6254 15.9227 97.8014 15.576C97.9828 15.2293 98.2254 14.9627 98.5294 14.776C98.8388 14.5893 99.1828 14.496 99.5614 14.496C99.8921 14.496 100.18 14.5627 100.425 14.696C100.676 14.8293 100.876 14.9973 101.025 15.2V14.568H102.153V19H101.025V18.352C100.881 18.56 100.681 18.7333 100.425 18.872C100.175 19.0053 99.8841 19.072 99.5534 19.072C99.1801 19.072 98.8388 18.976 98.5294 18.784C98.2254 18.592 97.9828 18.3227 97.8014 17.976C97.6254 17.624 97.5374 17.2213 97.5374 16.768ZM101.025 16.784C101.025 16.512 100.972 16.28 100.865 16.088C100.759 15.8907 100.615 15.7413 100.433 15.64C100.252 15.5333 100.057 15.48 99.8494 15.48C99.6414 15.48 99.4494 15.5307 99.2734 15.632C99.0974 15.7333 98.9534 15.8827 98.8414 16.08C98.7348 16.272 98.6814 16.5013 98.6814 16.768C98.6814 17.0347 98.7348 17.2693 98.8414 17.472C98.9534 17.6693 99.0974 17.8213 99.2734 17.928C99.4548 18.0347 99.6468 18.088 99.8494 18.088C100.057 18.088 100.252 18.0373 100.433 17.936C100.615 17.8293 100.759 17.68 100.865 17.488C100.972 17.2907 101.025 17.056 101.025 16.784ZM104.551 15.488V17.632C104.551 17.7813 104.586 17.8907 104.655 17.96C104.73 18.024 104.853 18.056 105.023 18.056H105.543V19H104.839C103.895 19 103.423 18.5413 103.423 17.624V15.488H102.895V14.568H103.423V13.472H104.551V14.568H105.543V15.488H104.551ZM107.653 15.488V17.632C107.653 17.7813 107.688 17.8907 107.757 17.96C107.832 18.024 107.954 18.056 108.125 18.056H108.645V19H107.941C106.997 19 106.525 18.5413 106.525 17.624V15.488H105.997V14.568H106.525V13.472H107.653V14.568H108.645V15.488H107.653ZM113.57 16.688C113.57 16.848 113.56 16.992 113.538 17.12H110.298C110.325 17.44 110.437 17.6907 110.634 17.872C110.832 18.0533 111.074 18.144 111.362 18.144C111.778 18.144 112.074 17.9653 112.25 17.608H113.458C113.33 18.0347 113.085 18.3867 112.722 18.664C112.36 18.936 111.914 19.072 111.386 19.072C110.96 19.072 110.576 18.9787 110.234 18.792C109.898 18.6 109.634 18.3307 109.442 17.984C109.256 17.6373 109.162 17.2373 109.162 16.784C109.162 16.3253 109.256 15.9227 109.442 15.576C109.629 15.2293 109.89 14.9627 110.226 14.776C110.562 14.5893 110.949 14.496 111.386 14.496C111.808 14.496 112.184 14.5867 112.514 14.768C112.85 14.9493 113.109 15.208 113.29 15.544C113.477 15.8747 113.57 16.256 113.57 16.688ZM112.41 16.368C112.405 16.08 112.301 15.8507 112.098 15.68C111.896 15.504 111.648 15.416 111.354 15.416C111.077 15.416 110.842 15.5013 110.65 15.672C110.464 15.8373 110.349 16.0693 110.306 16.368H112.41ZM115.508 15.256C115.652 15.0213 115.839 14.8373 116.068 14.704C116.303 14.5707 116.569 14.504 116.868 14.504V15.68H116.572C116.22 15.68 115.953 15.7627 115.772 15.928C115.596 16.0933 115.508 16.3813 115.508 16.792V19H114.388V14.568H115.508V15.256ZM119.318 19.072C118.956 19.072 118.63 19.008 118.342 18.88C118.054 18.7467 117.825 18.568 117.654 18.344C117.489 18.12 117.398 17.872 117.382 17.6H118.51C118.532 17.7707 118.614 17.912 118.758 18.024C118.908 18.136 119.092 18.192 119.31 18.192C119.524 18.192 119.689 18.1493 119.806 18.064C119.929 17.9787 119.99 17.8693 119.99 17.736C119.99 17.592 119.916 17.4853 119.766 17.416C119.622 17.3413 119.39 17.2613 119.07 17.176C118.74 17.096 118.468 17.0133 118.254 16.928C118.046 16.8427 117.865 16.712 117.71 16.536C117.561 16.36 117.486 16.1227 117.486 15.824C117.486 15.5787 117.556 15.3547 117.694 15.152C117.838 14.9493 118.041 14.7893 118.302 14.672C118.569 14.5547 118.881 14.496 119.238 14.496C119.766 14.496 120.188 14.6293 120.502 14.896C120.817 15.1573 120.99 15.512 121.022 15.96H119.95C119.934 15.784 119.86 15.6453 119.726 15.544C119.598 15.4373 119.425 15.384 119.206 15.384C119.004 15.384 118.846 15.4213 118.734 15.496C118.628 15.5707 118.574 15.6747 118.574 15.808C118.574 15.9573 118.649 16.072 118.798 16.152C118.948 16.2267 119.18 16.304 119.494 16.384C119.814 16.464 120.078 16.5467 120.286 16.632C120.494 16.7173 120.673 16.8507 120.822 17.032C120.977 17.208 121.057 17.4427 121.062 17.736C121.062 17.992 120.99 18.2213 120.846 18.424C120.708 18.6267 120.505 18.7867 120.238 18.904C119.977 19.016 119.67 19.072 119.318 19.072Z" fill="#221F93"/>
</svg>
