<svg width="310" height="65" viewBox="0 0 310 65" fill="none" xmlns="http://www.w3.org/2000/svg">
<path d="M50.4133 27.7493C50.9395 26.6107 52.223 23.0702 53.9329 22.9044C55.6427 22.7387 58.0865 24.5226 58.3316 26.6088C58.4768 27.8526 57.2511 30.9253 55.5412 30.4476C53.8314 29.9699 54.0484 27.8897 54.9806 25.786C56.1315 23.193 59.3638 20.3777 61.2048 19.4243C63.0458 18.471 66.7184 20.2802 67.3758 24.8833C68.0332 29.4864 62.9771 36.8522 60.6614 35.9963C59.7385 35.657 58.5502 34.8713 59.7416 31.2314C61.2579 26.5971 70.3911 19.6329 72.7583 19.1553C75.1255 18.6776 76.4825 19.8104 77.4912 21.8575C78.6186 24.1405 77.7363 26.6965 76.1764 30.7537C74.4588 35.2203 60.6614 50.9325 56.717 53.7926C52.7727 56.6527 50.1431 56.4051 50.1431 56.4051C50.1431 56.4051 21.8707 56.2784 20.5574 56.4051C19.06 56.5533 18.6415 56.9764 17.8592 57.6139C17.4157 57.9726 17.105 58.2651 16.5647 58.6589C15.4873 59.4387 14.4379 60.3414 12.5376 61.7354C9.0898 64.27 6.35718 60.3063 6.35718 60.3063C6.35718 60.3063 2.41284 51.8858 2.15051 50.6147C2.15051 50.6147 1.49156 45.6879 2.93126 42.6699C4.37096 39.6519 10.6279 35.3685 10.6279 35.3685C10.6279 35.3685 12.6578 33.9316 13.5807 32.5025C14.5035 31.0734 16.2227 27.3886 21.4709 26.5971C23.8132 26.2442 27.5186 26.5113 32.9104 29.5059C38.3023 32.5006 44.0861 24.2419 44.0861 24.2419C44.0861 24.2419 55.421 7.64071 45.1385 2.63403C41.5268 0.879358 40.1417 5.49415 37.6433 8.19441C37.6433 8.19441 29.408 -3.172 26.4677 9.94908C24.2394 19.8922 34.8732 27.2151 36.2505 28.1899C37.0656 28.7748 38.2601 29.1296 38.3819 29.1647L46.5845 31.0929C46.5845 31.0929 53.4223 31.8728 53.6846 36.006C53.9469 40.1393 48.2943 42.2039 48.2943 42.2039C48.2943 42.2039 35.54 43.3152 29.2284 39.6694" stroke="#221F93" stroke-width="3" stroke-miterlimit="10"/>
<path d="M109.21 25.264C108.858 24.6187 108.374 24.1273 107.758 23.79C107.142 23.4527 106.423 23.284 105.602 23.284C104.693 23.284 103.886 23.4893 103.182 23.9C102.478 24.3107 101.928 24.8973 101.532 25.66C101.136 26.4227 100.938 27.3027 100.938 28.3C100.938 29.3267 101.136 30.2213 101.532 30.984C101.943 31.7467 102.507 32.3333 103.226 32.744C103.945 33.1547 104.781 33.36 105.734 33.36C106.907 33.36 107.868 33.052 108.616 32.436C109.364 31.8053 109.855 30.9327 110.09 29.818H104.81V27.464H113.126V30.148C112.921 31.2187 112.481 32.2087 111.806 33.118C111.131 34.0273 110.259 34.7607 109.188 35.318C108.132 35.8607 106.944 36.132 105.624 36.132C104.143 36.132 102.801 35.802 101.598 35.142C100.41 34.4673 99.4713 33.536 98.782 32.348C98.1073 31.16 97.77 29.8107 97.77 28.3C97.77 26.7893 98.1073 25.44 98.782 24.252C99.4713 23.0493 100.41 22.118 101.598 21.458C102.801 20.7833 104.135 20.446 105.602 20.446C107.333 20.446 108.836 20.8713 110.112 21.722C111.388 22.558 112.268 23.7387 112.752 25.264H109.21ZM126.735 29.642C126.735 30.082 126.705 30.478 126.647 30.83H117.737C117.81 31.71 118.118 32.3993 118.661 32.898C119.203 33.3967 119.871 33.646 120.663 33.646C121.807 33.646 122.621 33.1547 123.105 32.172H126.427C126.075 33.3453 125.4 34.3133 124.403 35.076C123.405 35.824 122.181 36.198 120.729 36.198C119.555 36.198 118.499 35.9413 117.561 35.428C116.637 34.9 115.911 34.1593 115.383 33.206C114.869 32.2527 114.613 31.1527 114.613 29.906C114.613 28.6447 114.869 27.5373 115.383 26.584C115.896 25.6307 116.615 24.8973 117.539 24.384C118.463 23.8707 119.526 23.614 120.729 23.614C121.887 23.614 122.921 23.8633 123.831 24.362C124.755 24.8607 125.466 25.572 125.965 26.496C126.478 27.4053 126.735 28.454 126.735 29.642ZM123.545 28.762C123.53 27.97 123.244 27.3393 122.687 26.87C122.129 26.386 121.447 26.144 120.641 26.144C119.878 26.144 119.233 26.3787 118.705 26.848C118.191 27.3027 117.876 27.9407 117.759 28.762H123.545ZM135.737 23.636C137.189 23.636 138.362 24.098 139.257 25.022C140.152 25.9313 140.599 27.2073 140.599 28.85V36H137.519V29.268C137.519 28.3 137.277 27.5593 136.793 27.046C136.309 26.518 135.649 26.254 134.813 26.254C133.962 26.254 133.288 26.518 132.789 27.046C132.305 27.5593 132.063 28.3 132.063 29.268V36H128.983V23.812H132.063V25.33C132.474 24.802 132.994 24.3913 133.625 24.098C134.27 23.79 134.974 23.636 135.737 23.636ZM154.858 29.642C154.858 30.082 154.828 30.478 154.77 30.83H145.86C145.933 31.71 146.241 32.3993 146.784 32.898C147.326 33.3967 147.994 33.646 148.786 33.646C149.93 33.646 150.744 33.1547 151.228 32.172H154.55C154.198 33.3453 153.523 34.3133 152.526 35.076C151.528 35.824 150.304 36.198 148.852 36.198C147.678 36.198 146.622 35.9413 145.684 35.428C144.76 34.9 144.034 34.1593 143.506 33.206C142.992 32.2527 142.736 31.1527 142.736 29.906C142.736 28.6447 142.992 27.5373 143.506 26.584C144.019 25.6307 144.738 24.8973 145.662 24.384C146.586 23.8707 147.649 23.614 148.852 23.614C150.01 23.614 151.044 23.8633 151.954 24.362C152.878 24.8607 153.589 25.572 154.088 26.496C154.601 27.4053 154.858 28.454 154.858 29.642ZM151.668 28.762C151.653 27.97 151.367 27.3393 150.81 26.87C150.252 26.386 149.57 26.144 148.764 26.144C148.001 26.144 147.356 26.3787 146.828 26.848C146.314 27.3027 145.999 27.9407 145.882 28.762H151.668ZM160.186 25.704C160.582 25.0587 161.095 24.5527 161.726 24.186C162.371 23.8193 163.105 23.636 163.926 23.636V26.87H163.112C162.144 26.87 161.411 27.0973 160.912 27.552C160.428 28.0067 160.186 28.7987 160.186 29.928V36H157.106V23.812H160.186V25.704ZM171.412 36.198C170.239 36.198 169.183 35.9413 168.244 35.428C167.306 34.9 166.565 34.1593 166.022 33.206C165.494 32.2527 165.23 31.1527 165.23 29.906C165.23 28.6593 165.502 27.5593 166.044 26.606C166.602 25.6527 167.357 24.9193 168.31 24.406C169.264 23.878 170.327 23.614 171.5 23.614C172.674 23.614 173.737 23.878 174.69 24.406C175.644 24.9193 176.392 25.6527 176.934 26.606C177.492 27.5593 177.77 28.6593 177.77 29.906C177.77 31.1527 177.484 32.2527 176.912 33.206C176.355 34.1593 175.592 34.9 174.624 35.428C173.671 35.9413 172.6 36.198 171.412 36.198ZM171.412 33.514C171.97 33.514 172.49 33.382 172.974 33.118C173.473 32.8393 173.869 32.4287 174.162 31.886C174.456 31.3433 174.602 30.6833 174.602 29.906C174.602 28.7473 174.294 27.86 173.678 27.244C173.077 26.6133 172.336 26.298 171.456 26.298C170.576 26.298 169.836 26.6133 169.234 27.244C168.648 27.86 168.354 28.7473 168.354 29.906C168.354 31.0647 168.64 31.9593 169.212 32.59C169.799 33.206 170.532 33.514 171.412 33.514ZM184.694 36.198C183.696 36.198 182.802 36.022 182.01 35.67C181.218 35.3033 180.587 34.812 180.118 34.196C179.663 33.58 179.414 32.898 179.37 32.15H182.472C182.53 32.6193 182.758 33.008 183.154 33.316C183.564 33.624 184.07 33.778 184.672 33.778C185.258 33.778 185.713 33.6607 186.036 33.426C186.373 33.1913 186.542 32.8907 186.542 32.524C186.542 32.128 186.336 31.8347 185.926 31.644C185.53 31.4387 184.892 31.2187 184.012 30.984C183.102 30.764 182.354 30.5367 181.768 30.302C181.196 30.0673 180.697 29.708 180.272 29.224C179.861 28.74 179.656 28.0873 179.656 27.266C179.656 26.5913 179.846 25.9753 180.228 25.418C180.624 24.8607 181.181 24.4207 181.9 24.098C182.633 23.7753 183.491 23.614 184.474 23.614C185.926 23.614 187.084 23.9807 187.95 24.714C188.815 25.4327 189.292 26.408 189.38 27.64H186.432C186.388 27.156 186.182 26.7747 185.816 26.496C185.464 26.2027 184.987 26.056 184.386 26.056C183.828 26.056 183.396 26.1587 183.088 26.364C182.794 26.5693 182.648 26.8553 182.648 27.222C182.648 27.6327 182.853 27.948 183.264 28.168C183.674 28.3733 184.312 28.586 185.178 28.806C186.058 29.026 186.784 29.2533 187.356 29.488C187.928 29.7227 188.419 30.0893 188.83 30.588C189.255 31.072 189.475 31.7173 189.49 32.524C189.49 33.228 189.292 33.8587 188.896 34.416C188.514 34.9733 187.957 35.4133 187.224 35.736C186.505 36.044 185.662 36.198 184.694 36.198ZM193.58 22.36C193.037 22.36 192.583 22.1913 192.216 21.854C191.864 21.502 191.688 21.0693 191.688 20.556C191.688 20.0427 191.864 19.6173 192.216 19.28C192.583 18.928 193.037 18.752 193.58 18.752C194.123 18.752 194.57 18.928 194.922 19.28C195.289 19.6173 195.472 20.0427 195.472 20.556C195.472 21.0693 195.289 21.502 194.922 21.854C194.57 22.1913 194.123 22.36 193.58 22.36ZM195.098 23.812V36H192.018V23.812H195.098ZM201.727 26.342V32.238C201.727 32.6487 201.822 32.9493 202.013 33.14C202.218 33.316 202.556 33.404 203.025 33.404H204.455V36H202.519C199.923 36 198.625 34.7387 198.625 32.216V26.342H197.173V23.812H198.625V20.798H201.727V23.812H204.455V26.342H201.727ZM218.33 23.812L210.784 41.764H207.506L210.146 35.692L205.262 23.812H208.716L211.862 32.326L215.052 23.812H218.33ZM241.975 20.644V36H238.895V26.012L234.781 36H232.449L228.313 26.012V36H225.233V20.644H228.731L233.615 32.062L238.499 20.644H241.975ZM244.228 29.862C244.228 28.63 244.47 27.5373 244.954 26.584C245.453 25.6307 246.12 24.8973 246.956 24.384C247.807 23.8707 248.753 23.614 249.794 23.614C250.703 23.614 251.495 23.7973 252.17 24.164C252.859 24.5307 253.409 24.9927 253.82 25.55V23.812H256.922V36H253.82V34.218C253.424 34.79 252.874 35.2667 252.17 35.648C251.481 36.0147 250.681 36.198 249.772 36.198C248.745 36.198 247.807 35.934 246.956 35.406C246.12 34.878 245.453 34.1373 244.954 33.184C244.47 32.216 244.228 31.1087 244.228 29.862ZM253.82 29.906C253.82 29.158 253.673 28.52 253.38 27.992C253.087 27.4493 252.691 27.0387 252.192 26.76C251.693 26.4667 251.158 26.32 250.586 26.32C250.014 26.32 249.486 26.4593 249.002 26.738C248.518 27.0167 248.122 27.4273 247.814 27.97C247.521 28.498 247.374 29.1287 247.374 29.862C247.374 30.5953 247.521 31.2407 247.814 31.798C248.122 32.3407 248.518 32.7587 249.002 33.052C249.501 33.3453 250.029 33.492 250.586 33.492C251.158 33.492 251.693 33.3527 252.192 33.074C252.691 32.7807 253.087 32.37 253.38 31.842C253.673 31.2993 253.82 30.654 253.82 29.906ZM263.516 26.342V32.238C263.516 32.6487 263.611 32.9493 263.802 33.14C264.007 33.316 264.345 33.404 264.814 33.404H266.244V36H264.308C261.712 36 260.414 34.7387 260.414 32.216V26.342H258.962V23.812H260.414V20.798H263.516V23.812H266.244V26.342H263.516ZM272.045 26.342V32.238C272.045 32.6487 272.141 32.9493 272.331 33.14C272.537 33.316 272.874 33.404 273.343 33.404H274.773V36H272.837C270.241 36 268.943 34.7387 268.943 32.216V26.342H267.491V23.812H268.943V20.798H272.045V23.812H274.773V26.342H272.045ZM288.319 29.642C288.319 30.082 288.289 30.478 288.231 30.83H279.321C279.394 31.71 279.702 32.3993 280.245 32.898C280.787 33.3967 281.455 33.646 282.247 33.646C283.391 33.646 284.205 33.1547 284.689 32.172H288.011C287.659 33.3453 286.984 34.3133 285.987 35.076C284.989 35.824 283.765 36.198 282.313 36.198C281.139 36.198 280.083 35.9413 279.145 35.428C278.221 34.9 277.495 34.1593 276.967 33.206C276.453 32.2527 276.197 31.1527 276.197 29.906C276.197 28.6447 276.453 27.5373 276.967 26.584C277.48 25.6307 278.199 24.8973 279.123 24.384C280.047 23.8707 281.11 23.614 282.313 23.614C283.471 23.614 284.505 23.8633 285.415 24.362C286.339 24.8607 287.05 25.572 287.549 26.496C288.062 27.4053 288.319 28.454 288.319 29.642ZM285.129 28.762C285.114 27.97 284.828 27.3393 284.271 26.87C283.713 26.386 283.031 26.144 282.225 26.144C281.462 26.144 280.817 26.3787 280.289 26.848C279.775 27.3027 279.46 27.9407 279.343 28.762H285.129ZM293.647 25.704C294.043 25.0587 294.556 24.5527 295.187 24.186C295.832 23.8193 296.565 23.636 297.387 23.636V26.87H296.573C295.605 26.87 294.871 27.0973 294.373 27.552C293.889 28.0067 293.647 28.7987 293.647 29.928V36H290.567V23.812H293.647V25.704ZM304.125 36.198C303.128 36.198 302.233 36.022 301.441 35.67C300.649 35.3033 300.019 34.812 299.549 34.196C299.095 33.58 298.845 32.898 298.801 32.15H301.903C301.962 32.6193 302.189 33.008 302.585 33.316C302.996 33.624 303.502 33.778 304.103 33.778C304.69 33.778 305.145 33.6607 305.467 33.426C305.805 33.1913 305.973 32.8907 305.973 32.524C305.973 32.128 305.768 31.8347 305.357 31.644C304.961 31.4387 304.323 31.2187 303.443 30.984C302.534 30.764 301.786 30.5367 301.199 30.302C300.627 30.0673 300.129 29.708 299.703 29.224C299.293 28.74 299.087 28.0873 299.087 27.266C299.087 26.5913 299.278 25.9753 299.659 25.418C300.055 24.8607 300.613 24.4207 301.331 24.098C302.065 23.7753 302.923 23.614 303.905 23.614C305.357 23.614 306.516 23.9807 307.381 24.714C308.247 25.4327 308.723 26.408 308.811 27.64H305.863C305.819 27.156 305.614 26.7747 305.247 26.496C304.895 26.2027 304.419 26.056 303.817 26.056C303.26 26.056 302.827 26.1587 302.519 26.364C302.226 26.5693 302.079 26.8553 302.079 27.222C302.079 27.6327 302.285 27.948 302.695 28.168C303.106 28.3733 303.744 28.586 304.609 28.806C305.489 29.026 306.215 29.2533 306.787 29.488C307.359 29.7227 307.851 30.0893 308.261 30.588C308.687 31.072 308.907 31.7173 308.921 32.524C308.921 33.228 308.723 33.8587 308.327 34.416C307.946 34.9733 307.389 35.4133 306.655 35.736C305.937 36.044 305.093 36.198 304.125 36.198Z" fill="#221F93"/>
</svg>
