<svg width="247" height="188" viewBox="0 0 247 188" fill="none" xmlns="http://www.w3.org/2000/svg">
<circle cx="124" cy="114" r="40" fill="#F7D76F"/>
<path d="M117.825 103.25L136.575 114.075L117.825 124.901L117.825 103.25Z" fill="#221F93"/>
<path d="M36.1909 178.09L33.1918 172.986C30.7297 168.796 26.0486 167.895 22.6253 169.846C19.3235 171.727 18.5147 175.64 20.7438 179.434L24.0265 185.021L24.461 184.773L24.1816 184.219C23.8082 183.465 23.9372 182.816 24.6671 182.4L33.5644 177.331C34.2943 176.915 34.9299 177.129 35.3975 177.806L35.7564 178.338L36.1909 178.09ZM32.169 175.272L22.1595 180.975L21.3794 179.647C19.8596 177.06 21.1692 173.921 24.4709 172.04C27.5468 170.287 31.1609 170.438 32.5996 172.886L32.8022 173.231C33.2582 174.007 33.0032 174.797 32.169 175.272Z" fill="black"/>
<path d="M26.9194 159.904C26.0874 157.933 24.2796 157.095 22.0968 157.426L22.2445 157.776C23.4355 157.872 24.3678 158.744 24.811 159.795C25.604 161.674 24.6667 163.311 22.3158 164.273L22.2048 164.318L19.6467 158.256C17.2003 159.3 15.9639 161.102 16.9202 163.369C18.0321 166.004 21.1486 167.062 24.1289 165.843C26.8684 164.722 27.9301 162.3 26.9194 159.904ZM21.8083 164.459C19.8365 165.136 17.8762 164.965 17.3475 163.712C16.8887 162.625 18.0534 161.63 19.96 160.85L20.2377 160.736L21.8083 164.459Z" fill="black"/>
<path d="M23.2371 149.332C22.6271 147.281 20.9234 146.253 18.7189 146.347L18.8273 146.711C19.9997 146.935 20.8243 147.884 21.1549 148.996C21.7136 150.875 20.7026 152.456 18.1659 153.188C15.8214 153.864 13.6937 153.374 13.3117 152.09C12.9982 151.035 13.9781 150.191 15.9767 149.615L15.2641 147.218C13.0072 148.119 12.4063 149.957 12.9479 151.778C13.7346 154.424 16.7004 155.838 19.8328 154.934C22.6578 154.12 23.9781 151.824 23.2371 149.332Z" fill="black"/>
<path d="M20.6698 137.935C20.1552 134.959 17.6216 133.335 14.584 133.845C11.5858 134.347 9.74396 136.724 10.2517 139.661C10.7526 142.558 13.3325 144.214 16.3307 143.711C19.3288 143.209 21.1741 140.851 20.6698 137.935ZM14.6879 141.371C12.2814 141.774 10.7944 141.273 10.5695 139.973C10.2832 138.317 12.6137 136.771 16.2036 136.169C18.5903 135.769 20.0971 136.266 20.3255 137.587C20.6083 139.222 18.2975 140.766 14.6879 141.371Z" fill="black"/>
<path d="M19.4396 126.292C19.3755 124.773 18.4006 123.492 17.2728 122.858L19.2911 122.775L18.4357 119.107L17.996 119.125L18.0053 119.345C18.0382 120.124 17.638 120.601 16.7387 120.638L8.64549 120.969L9.50603 124.757L9.94566 124.739L9.93554 124.499C9.90264 123.72 10.3229 123.242 11.2021 123.206L17.0372 122.967C17.6612 123.522 18.0721 124.246 18.105 125.025C18.159 126.304 17.2684 127.021 15.7497 127.083L8.91543 127.363L9.77513 131.131L10.2148 131.113L10.2046 130.873C10.1717 130.094 10.592 129.616 11.4712 129.581L16.1673 129.388C18.2655 129.302 19.5155 128.09 19.4396 126.292Z" fill="black"/>
<path d="M10.6817 115.056L19.5627 111.973L19.6078 111.455L11.7198 107.055C10.9158 106.606 10.3925 106.16 10.3926 105.237L9.97406 105.202L9.6426 109.007L10.0611 109.043C10.1444 108.086 10.4608 107.451 11.1184 107.506C11.3177 107.523 11.5118 107.6 11.7622 107.721L17.1376 110.544L11.2365 112.374C10.9489 112.45 10.7045 112.489 10.5052 112.472C10.0468 112.434 9.81553 112.093 9.86502 111.294L9.44651 111.259L8.99705 116.419L9.41556 116.455C9.52741 115.862 9.95812 115.296 10.6817 115.056Z" fill="black"/>
<path d="M20.5156 104.493L21.6344 99.006L21.2223 98.9245L21.1028 99.4106C20.9474 100.073 20.4823 100.552 19.5405 100.366L14.7139 99.4116C13.8019 98.5789 13.6565 97.4901 13.8363 96.6082C13.9162 96.2163 14.059 95.8164 14.2646 95.4085L12.0083 94.9625C11.8935 95.2252 11.7943 95.5114 11.7504 95.7269C11.4787 97.0595 12.3853 98.3192 14.4389 99.4591L11.1231 98.8036L11.0706 102.565L11.5023 102.65L11.5462 102.435C11.702 101.67 12.21 101.281 13.0733 101.452L19.0771 102.639C20.0385 102.829 20.2209 103.436 20.1439 104.114L20.1036 104.412L20.5156 104.493Z" fill="black"/>
<path d="M24.4491 89.8509C25.0975 87.8115 24.2594 86.0253 22.372 84.8993L22.2568 85.2614C23.1062 86.0883 23.2516 87.347 22.9061 88.4334C22.2879 90.3775 20.503 91.041 18.0758 90.2926L17.9611 90.2573L19.955 83.9867C17.4009 83.2411 15.279 83.8425 14.5335 86.1869C13.6669 88.9124 15.3632 91.6956 18.4402 92.6443C21.2688 93.5164 23.6612 92.3286 24.4491 89.8509ZM17.5658 90.1145C15.6145 89.3873 14.2244 88.017 14.6366 86.7209C14.9941 85.5964 16.5348 85.5691 18.5033 86.176L18.79 86.2644L17.5658 90.1145Z" fill="black"/>
<path d="M26.5496 83.4131L29.8544 75.9742L26.8289 74.2136L26.6177 74.6888C28.1862 75.8871 28.8597 77.1789 28.2101 78.6411L27.2438 80.8161L21.0224 71.6689L20.7285 71.5423L17.3424 79.164L20.3732 80.4695L20.5518 80.0674C19.0939 79.1128 18.4 77.7686 19.1389 76.1054L20.0077 74.1497L26.2373 83.2786L26.5496 83.4131Z" fill="black"/>
<path d="M34.9343 67.092L37.9795 62.7542L37.6323 62.5179L37.4434 62.7521C36.8717 63.4274 36.2593 63.325 35.6807 62.9312L30.4727 59.3862C30.2769 58.5513 30.4353 57.5948 30.9294 56.8909C31.6189 55.9088 32.6544 55.7911 33.9606 56.6802L38.0939 59.4937C38.6726 59.8875 38.9861 60.4155 38.5581 61.1643L38.4023 61.4211L38.7495 61.6575L41.7947 57.3197L41.4475 57.0833L41.2586 57.3176C40.7608 57.9222 40.1163 58.0399 39.4384 57.5785L35.1232 54.6412C33.3376 53.4258 31.7416 53.6457 30.6959 55.1353C29.811 56.3957 29.6716 58.091 30.2168 59.333L28.547 58.1963L26.9997 61.6185L27.3635 61.8661L27.4899 61.686C27.938 61.0476 28.561 60.8911 29.2885 61.3863L34.3477 64.83C35.1578 65.3814 35.084 66.0086 34.7429 66.5989L34.5871 66.8557L34.9343 67.092Z" fill="black"/>
<path d="M46.6769 52.4479C48.7124 50.2169 48.4111 47.2537 46.1043 45.213C43.8274 43.1987 40.7897 43.2347 38.7811 45.4361C36.7995 47.608 37.1038 50.6272 39.3807 52.6415C41.6576 54.6557 44.6818 54.6345 46.6769 52.4479ZM40.2059 49.9272C38.3783 48.3105 37.8435 46.8494 38.7332 45.8743C39.8655 44.6333 42.5513 45.4874 45.2776 47.8992C47.0901 49.5027 47.6399 50.977 46.7368 51.9668C45.6179 53.1931 42.9471 52.3523 40.2059 49.9272Z" fill="black"/>
<path d="M55.2187 44.2695C55.864 43.701 56.4094 42.8739 56.7319 41.9502L56.4898 41.6837C56.2223 42.1327 55.9459 42.4827 55.6458 42.7472C54.8054 43.4876 53.9605 43.539 53.0325 42.5177L48.2039 37.2038L50.4998 35.181L50.2174 34.8701L47.9214 36.893L46.2671 35.0724L45.9519 35.35C46.3413 36.8193 45.5991 38.6193 44.9651 39.4976L45.2072 39.7641L46.4078 38.7064L51.5323 44.3459C52.689 45.6188 54.0782 45.2743 55.2187 44.2695Z" fill="black"/>
<path d="M59.3159 40.6395L63.8588 37.3651L63.6083 37.0281L63.1907 37.3044C62.6271 37.6859 61.9581 37.7244 61.3854 36.954L58.4502 33.0054C58.337 31.7805 58.9659 30.8835 59.696 30.3573C60.0205 30.1234 60.397 29.926 60.8256 29.765L59.4534 27.9191C59.1905 28.0347 58.9233 28.178 58.7448 28.3066C57.6415 29.1018 57.4617 30.6365 58.2139 32.8553L56.1975 30.1426L53.6135 32.8678L53.876 33.221L54.0545 33.0923C54.6872 32.6363 55.3272 32.6927 55.8522 33.3989L59.5033 38.3105C60.0879 39.097 59.8126 39.6652 59.2968 40.111L59.0653 40.3024L59.3159 40.6395Z" fill="black"/>
<path d="M72.2039 32.4966C74.0611 31.4335 74.647 29.5543 74.0104 27.4531L73.6806 27.6419C73.7508 28.823 73.0085 29.847 72.0191 30.4133C70.2486 31.4267 68.4793 30.7113 67.188 28.524L67.127 28.4206L72.8377 25.1519C71.4507 22.8811 69.4739 21.8927 67.3389 23.1148C64.8568 24.5356 64.2327 27.727 65.8696 30.4999C67.3744 33.0488 69.9474 33.7882 72.2039 32.4966ZM66.9309 28.049C65.9776 26.1982 65.8742 24.2528 67.0545 23.5771C68.0786 22.991 69.2374 24.0098 70.2846 25.7837L70.4371 26.0421L66.9309 28.049Z" fill="black"/>
<path d="M86.1017 30.0188L91.4007 28.2076L91.2611 27.8115L90.7557 27.942C90.0043 28.1565 89.4351 27.865 89.1625 27.0916L88.1917 24.3377C89.0326 24.5576 89.8939 24.4745 90.7456 24.1834C93.6222 23.2003 94.86 20.5157 93.7829 17.46C92.8121 14.7061 90.5253 13.332 88.1407 14.147C86.7403 14.6256 85.8063 15.7057 85.5505 17.1458L84.8856 15.2595L81.6172 17.1163L81.7635 17.5313L81.9716 17.4602C82.7097 17.2079 83.3035 17.4488 83.5961 18.2787L86.9671 27.842C87.2929 28.7662 86.8628 29.2303 86.2393 29.5068L85.962 29.6227L86.1017 30.0188ZM87.8526 23.3757L85.7449 17.3964C86.0554 16.5928 86.6814 16.0829 87.3817 15.8436C89.0281 15.2808 90.7135 16.3322 91.6177 18.8975C92.4888 21.3685 91.9772 23.4666 90.3497 24.0229C89.4602 24.3269 88.5615 24.0634 87.8526 23.3757Z" fill="black"/>
<path d="M97.8153 22.1202L103.287 20.9273L103.195 20.5176L102.702 20.6046C102.033 20.7299 101.407 20.4979 101.196 19.5613L100.117 14.7612C100.51 13.5907 101.447 13.0179 102.326 12.8262C102.717 12.741 103.141 12.7101 103.597 12.7334L103.092 10.4894C102.806 10.4905 102.504 10.5154 102.289 10.5623C100.96 10.852 100.174 12.19 99.9622 14.5288L99.2208 11.2311L95.7593 12.7022L95.8558 13.1315L96.0707 13.0846C96.8328 12.9185 97.3939 13.226 97.587 14.0846L98.9295 20.0555C99.1445 21.0116 98.6631 21.4236 98.0119 21.627L97.7232 21.7104L97.8153 22.1202Z" fill="black"/>
<path d="M113.407 19.7099C116.41 19.3972 118.183 16.9808 117.854 13.9184C117.529 10.8957 115.263 8.89961 112.299 9.20811C109.375 9.51247 107.567 11.9728 107.892 14.9955C108.216 18.0181 110.463 20.0163 113.407 19.7099ZM110.328 13.5153C110.067 11.0893 110.656 9.64054 111.969 9.50389C113.64 9.32997 115.047 11.7573 115.436 15.3765C115.694 17.7827 115.107 19.2513 113.775 19.39C112.123 19.5619 110.719 17.1544 110.328 13.5153Z" fill="black"/>
<path d="M121.009 23.3762C123.582 21.627 124.878 20.3824 124.868 17.7224L124.834 8.66243L121.037 9.37601L121.039 9.81601L121.279 9.81515C122.059 9.81236 122.5 10.2508 122.504 11.1308L122.53 18.2307C122.536 19.8107 122.261 21.2117 121.245 22.4954L120.788 23.117L121.009 23.3762ZM121.923 5.47282C121.926 6.31282 122.568 6.95052 123.508 6.94716C124.468 6.94373 125.106 6.32145 125.103 5.46145C125.099 4.60146 124.457 3.98375 123.497 3.98718C122.557 3.99054 121.92 4.63283 121.923 5.47282Z" fill="black"/>
<path d="M134.011 19.74C136.142 19.9311 137.72 18.7272 138.435 16.6427L138.056 16.6087C137.421 17.616 136.218 18.0302 135.082 17.9285C133.05 17.7463 132.033 16.1491 132.267 13.6199L132.278 13.5004L138.832 14.0879C139.037 11.4356 138.011 9.4963 135.561 9.27667C132.712 9.02132 130.334 11.278 130.038 14.4843C129.765 17.4318 131.421 19.5079 134.011 19.74ZM132.337 13.084C132.648 11.0235 133.704 9.37128 135.059 9.49271C136.234 9.59806 136.578 11.0947 136.388 13.146L136.361 13.4447L132.337 13.084Z" fill="black"/>
<path d="M144.788 21.3674C145.633 21.5295 146.626 21.4554 147.564 21.1466L147.634 20.7934C147.112 20.8562 146.664 20.8517 146.271 20.7763C145.172 20.5653 144.624 19.9308 144.892 18.577L146.286 11.5337L149.291 12.1103L149.373 11.6983L146.368 11.1216L146.845 8.70845L146.433 8.6293C145.481 9.83151 143.586 10.3435 142.498 10.3791L142.428 10.7323L144 11.0338L142.52 18.5088C142.186 20.1961 143.296 21.081 144.788 21.3674Z" fill="black"/>
<path d="M160.148 25.7358C161.194 26.1358 162.673 26.145 164.219 25.2798C163.935 26.4347 164.239 27.3002 165.285 27.7002C165.883 27.9288 166.636 27.9813 167.317 27.8349L167.471 27.4442C167.236 27.4401 167.009 27.4173 166.785 27.3316C166.075 27.0601 166.13 26.3747 166.431 25.6119L168.324 20.8117C169.05 18.9698 168.3 17.5479 166.095 16.705C163.76 15.8121 161.668 16.2112 160.47 18.3224L162.805 19.2153C163.758 17.1815 164.842 16.504 166.037 16.9612C167.009 17.3326 167.383 18.1823 166.935 19.3173C166.312 20.8987 165.045 20.9496 162.875 20.7835C161.002 20.6243 159.411 20.5723 158.706 22.3584C158.127 23.8283 158.653 25.1644 160.148 25.7358ZM161.294 22.5558C161.837 21.179 162.683 21.1599 163.679 21.1979L164.186 21.2205C164.745 21.2202 165.222 21.2099 165.705 21.0737L164.172 24.9622C163.585 25.3589 162.729 25.4596 162.056 25.2024C161.066 24.8238 160.817 23.7651 161.294 22.5558Z" fill="black"/>
<path d="M178.959 34.8807C179.696 35.324 180.655 35.5979 181.645 35.6332L181.835 35.3273C181.322 35.2056 180.903 35.0468 180.56 34.8406C179.601 34.2633 179.309 33.4813 180.037 32.3086L183.822 26.2072L186.444 27.7844L186.665 27.4274L184.043 25.8503L185.34 23.7598L184.98 23.5433C183.663 24.3382 181.701 24.1619 180.667 23.8195L180.477 24.1254L181.848 24.9501L177.831 31.4254C176.924 32.887 177.656 34.0973 178.959 34.8807Z" fill="black"/>
<path d="M183.71 37.6563L188.205 40.996L188.461 40.6626L188.072 40.3486C187.538 39.9271 187.307 39.3074 187.891 38.5454L190.884 34.6401C192.042 34.1804 193.096 34.5149 193.818 35.0516C194.139 35.2902 194.44 35.5883 194.72 35.9459L196.119 34.1203C195.931 33.9057 195.714 33.695 195.538 33.5638C194.446 32.7527 192.902 33.0254 190.962 34.3741L193.017 31.6912L189.622 30.0402L189.354 30.3894L189.531 30.5206C190.157 30.9858 190.287 31.6055 189.751 32.304L186.029 37.1618C185.433 37.9397 184.801 37.8438 184.219 37.4859L183.966 37.3229L183.71 37.6563Z" fill="black"/>
<path d="M194.091 46.2181C194.912 46.9796 196.284 47.542 198.045 47.3206C197.347 48.2822 197.303 49.196 198.124 49.9575C198.594 50.3927 199.274 50.7232 199.962 50.8429L200.252 50.5394C200.035 50.4476 199.832 50.3414 199.656 50.1782C199.099 49.6615 199.409 49.0485 199.975 48.4558L203.542 44.7265C204.91 43.2955 204.748 41.6999 203.017 40.0953C201.184 38.3956 199.09 37.9812 197.182 39.4846L199.015 41.1844C200.666 39.6606 201.928 39.4402 202.867 40.3104C203.63 41.0175 203.657 41.9433 202.814 42.825C201.639 44.0537 200.443 43.6264 198.489 42.6602C196.81 41.8122 195.351 41.1682 194.024 42.5559C192.932 43.6978 192.918 45.1302 194.091 46.2181ZM196.354 43.7072C197.377 42.6376 198.17 42.9366 199.08 43.3444L199.543 43.5552C200.062 43.7642 200.509 43.9332 201.01 43.9884L198.121 47.0094C197.427 47.1566 196.593 46.929 196.065 46.4395C195.288 45.7188 195.455 44.6468 196.354 43.7072Z" fill="black"/>
<path d="M208.283 47.9494L204.126 56.3117L204.462 56.7083L213.233 54.3131C214.128 54.0695 214.819 54.019 215.476 54.67L215.8 54.4032L213.33 51.4895L213.005 51.7562C213.626 52.4885 213.852 53.157 213.342 53.5761C213.188 53.7031 212.995 53.7844 212.729 53.8732L206.877 55.6293L209.795 50.2273C209.947 49.9732 210.093 49.775 210.248 49.648C210.603 49.3559 211.011 49.4349 211.544 50.0324L211.868 49.7657L208.518 45.8146L208.194 46.0813C208.536 46.5771 208.63 47.276 208.283 47.9494Z" fill="black"/>
<path d="M211.284 66.3191C212.469 68.1014 214.403 68.5917 216.49 67.8657L216.279 67.5492C215.09 67.6735 214.01 66.9891 213.379 66.0396C212.25 64.3405 212.869 62.5619 215.004 61.1862L215.105 61.1212L218.747 66.6015C220.961 65.1275 221.844 63.1314 220.482 61.0826C218.899 58.7005 215.636 58.2339 212.929 59.978C210.441 61.5812 209.845 64.1536 211.284 66.3191ZM215.469 60.9104C217.284 59.8837 219.245 59.6909 219.998 60.8236C220.651 61.8064 219.689 62.997 217.958 64.1127L217.705 64.2752L215.469 60.9104Z" fill="black"/>
<path d="M214.91 71.748L217.498 76.7141L217.873 76.5246L217.66 76.0722C217.363 75.4602 217.426 74.8012 218.283 74.3683L222.674 72.1494C223.916 72.2389 224.718 72.9988 225.134 73.797C225.319 74.1517 225.459 74.5512 225.555 74.9955L227.608 73.9582C227.532 73.6829 227.429 73.3988 227.328 73.2037C226.699 71.9976 225.192 71.5718 222.86 71.9435L225.877 70.4191L223.542 67.4536L223.149 67.6521L223.251 67.8472C223.611 68.5389 223.458 69.154 222.673 69.5508L217.211 72.3109C216.336 72.7528 215.809 72.3915 215.442 71.8156L215.285 71.5585L214.91 71.748Z" fill="black"/>
<path d="M221.132 85.6148C221.914 87.6069 223.561 88.6278 225.392 87.9307C227.392 87.1695 227.288 85.262 227.173 83.8723L227.082 82.6015C227.004 81.5826 227.028 80.4393 228.168 80.0054C229.103 79.6497 230.02 80.071 230.386 81.0018C230.824 82.1189 230.152 83.2521 228.768 83.8858L229.681 86.213C231.105 85.2431 231.601 83.3855 230.833 81.4307C230.095 79.5503 228.521 78.3306 226.577 79.0704C224.614 79.8174 224.696 81.6691 224.824 82.9257L224.945 84.1637C225.02 85.1196 225.061 86.4304 223.79 86.9141C222.818 87.284 221.901 86.8628 221.506 85.8575C220.995 84.5543 221.895 83.3986 223.481 82.6237L222.568 80.2965C220.898 81.2959 220.262 83.3994 221.132 85.6148Z" fill="black"/>
<path d="M225.437 98.9312L226.536 104.218L226.947 104.135L226.906 103.838C226.806 103.062 227.144 102.525 227.967 102.359L241.064 99.7213L239.605 96.1389L239.154 96.2297L239.203 96.4647C239.362 97.2284 239.044 97.7617 238.181 97.9355L227.496 100.088C226.515 100.285 226.127 99.792 225.93 99.1381L225.849 98.8483L225.437 98.9312Z" fill="black"/>
<path d="M227.093 109.89C227.211 111.004 227.874 112.323 229.344 113.298C228.187 113.578 227.554 114.246 227.672 115.36C227.739 115.996 228.033 116.69 228.472 117.228L228.89 117.185C228.788 116.974 228.705 116.761 228.679 116.523C228.6 115.767 229.235 115.501 230.051 115.417L235.184 114.891C237.154 114.689 238.08 113.368 237.832 111.021C237.569 108.535 236.266 106.859 233.842 106.766L234.105 109.252C236.348 109.163 237.443 109.814 237.577 111.087C237.687 112.122 237.099 112.845 235.886 112.97C234.195 113.143 233.575 112.04 232.74 110.035C232.033 108.298 231.359 106.859 229.449 107.055C227.877 107.216 226.925 108.299 227.093 109.89ZM230.445 109.446C231.918 109.295 232.318 110.038 232.735 110.94L232.945 111.401C233.198 111.898 233.424 112.317 233.764 112.684L229.606 113.111C228.987 112.772 228.509 112.057 228.433 111.341C228.322 110.287 229.152 109.578 230.445 109.446Z" fill="black"/>
<path d="M236.392 128.411L227.501 131.467L227.455 131.984L235.328 136.409C236.131 136.86 236.653 137.308 236.65 138.231L237.068 138.268L237.412 134.463L236.993 134.426C236.907 135.383 236.589 136.017 235.931 135.96C235.732 135.942 235.538 135.865 235.288 135.743L229.922 132.903L235.829 131.092C236.117 131.017 236.361 130.978 236.56 130.996C237.019 131.036 237.249 131.377 237.197 132.176L237.615 132.212L238.081 127.053L237.663 127.017C237.549 127.609 237.117 128.173 236.392 128.411Z" fill="black"/>
<path d="M226.477 139.076L225.42 144.372L225.832 144.452L225.911 144.161C226.122 143.408 226.625 143.036 227.449 143.196L235.873 144.826L235.929 140.967L235.497 140.883L235.45 141.119C235.298 141.883 234.776 142.251 233.912 142.084L227.903 140.921C226.922 140.731 226.776 140.132 226.85 139.454L226.889 139.156L226.477 139.076ZM239.598 142.614C238.773 142.454 238.02 142.96 237.836 143.882C237.644 144.843 238.135 145.549 238.979 145.713C239.824 145.876 240.53 145.402 240.722 144.441C240.91 143.499 240.423 142.773 239.598 142.614Z" fill="black"/>
<path d="M223.121 151.768C222.698 153.103 222.909 154.486 223.761 155.502L222.098 154.99L221.648 158.722L222.068 158.852L222.135 158.642C222.371 157.899 222.918 157.565 223.778 157.83L236.107 161.625L236.588 157.797L236.148 157.662L236.075 157.891C235.839 158.634 235.299 158.949 234.458 158.69L231.591 157.807C232.199 157.346 232.718 156.438 232.96 155.676C233.861 152.836 232.18 150.267 229.026 149.296C226.159 148.414 223.86 149.443 223.121 151.768ZM229.143 151.969C231.551 152.71 233.092 154.335 232.632 155.784C232.293 156.852 231.209 157.292 230.042 157.331L224.098 155.501C223.715 154.922 223.601 154.092 223.824 153.387C224.333 151.786 226.562 151.175 229.143 151.969Z" fill="black"/>
<path d="M218.087 164.644C217.198 166.59 217.816 168.461 219.556 169.801L219.714 169.455C218.97 168.535 218.976 167.269 219.45 166.232C220.298 164.377 222.152 163.929 224.474 164.958L224.584 165.007L221.849 170.992C224.297 172.033 226.478 171.687 227.501 169.449C228.69 166.848 227.338 163.887 224.394 162.583C221.688 161.383 219.168 162.279 218.087 164.644ZM224.959 165.195C226.811 166.147 228.028 167.671 227.463 168.908C226.972 169.981 225.438 169.826 223.554 168.991L223.28 168.87L224.959 165.195Z" fill="black"/>
<path d="M212.486 174.913C210.918 177.494 211.782 180.347 214.436 181.91C217.056 183.453 220.027 182.836 221.575 180.289C223.101 177.776 222.223 174.868 219.604 173.326C216.984 171.783 214.023 172.383 212.486 174.913ZM219.315 176.15C221.418 177.388 222.223 178.721 221.537 179.849C220.665 181.285 217.868 180.96 214.731 179.113C212.646 177.885 211.824 176.542 212.519 175.396C213.381 173.978 216.162 174.292 219.315 176.15Z" fill="black"/>
</svg>
