<svg id="Calque_1" data-name="Calque 1" xmlns="http://www.w3.org/2000/svg" viewBox="0 0 494.71 317.48"><defs><style>.cls-1{fill:none;stroke:#332fd0;stroke-miterlimit:10;stroke-width:8px;}</style></defs><title>GenerosityMatters</title><path class="cls-1" d="M350.1,259.48c3.37-5.84,11.59-24,22.54-24.85s26.6,8.3,28.17,19c.93,6.38-6.92,22.14-17.87,19.69s-9.56-13.12-3.59-23.91c7.37-13.3,28.07-27.74,39.86-32.63s35.31,4.39,39.52,28-28.17,61.39-43,57c-5.91-1.74-13.52-5.77-5.89-24.44,9.71-23.77,68.2-59.49,83.36-61.94s23.85,3.36,30.31,13.86c7.22,11.71,1.57,24.82-8.42,45.63-11,22.91-99.36,103.5-124.62,118.17s-42.1,13.4-42.1,13.4-181.06-.65-189.47,0c-9.59.76-12.27,2.93-17.28,6.2-2.84,1.84-4.83,3.34-8.29,5.36-6.9,4-13.62,8.63-25.79,15.78-22.08,13-39.58-7.33-39.58-7.33s-25.26-43.19-26.94-49.71c0,0-4.22-25.27,5-40.75s49.29-37.45,49.29-37.45,13-7.37,18.91-14.7,16.92-26.23,50.53-30.29c15-1.81,38.73-.44,73.26,14.92s71.57-27,71.57-27,72.59-85.15,6.74-110.83c-23.13-9-32,14.67-48,28.52,0,0-52.74-58.3-71.57,9-14.27,51,53.83,88.56,62.65,93.56,5.22,3,12.87,4.82,13.65,5l52.53,9.89s43.79,4,45.47,25.2-34.52,31.79-34.52,31.79-81.68,5.7-122.1-13" transform="translate(-36.11 -124.73)"/></svg>